<?xml version="1.0" encoding="UTF-8"?><svg id="Layer_2" xmlns="http://www.w3.org/2000/svg" viewBox="0 0 336.12 336.06"><defs><style>.cls-1{fill:#fff;}</style></defs><g id="Layer_1-2"><path class="cls-1" d="M167.76,184.27c-1.37,1.81-2.16,3.12-3.21,4.17-47.54,47.57-95.11,95.11-142.64,142.69-3.69,3.7-7.72,5.96-13.06,4.45-8.52-2.4-11.64-12.39-6.01-19.2,.87-1.06,1.89-1.99,2.87-2.96,47.37-47.38,94.75-94.77,142.14-142.13,.96-.96,2.16-1.7,3.24-2.54l.65-1.65c-1.3-.75-2.85-1.26-3.88-2.29C100.36,117.37,52.87,69.93,5.53,22.33,3.24,20.03,1.43,16.55,.88,13.37,.01,8.4,2.62,4.42,7.19,2.08,11.76-.26,16.14,.37,20.18,3.44c1.09,.83,1.99,1.89,2.97,2.86,47.22,47.19,94.44,94.37,141.63,141.58,.96,.96,1.71,2.15,4.2,3.92,.75-1.31,1.25-2.86,2.28-3.88C218.86,100.22,266.51,52.59,314.11,4.9c3.82-3.82,7.97-6.02,13.42-4.32,8.12,2.53,11.12,12.11,5.91,18.81-.99,1.28-2.21,2.38-3.36,3.52-47.19,47.21-94.39,94.42-141.6,141.61-1.06,1.06-2.24,1.99-3.65,3.23,1.32,1.38,2.3,2.45,3.33,3.48,47.56,47.55,95.16,95.07,142.63,142.71,2.26,2.27,4.17,5.39,5.01,8.46,1.28,4.68-1.53,9.63-5.72,12.04-4.24,2.44-9.5,2.1-13.38-.96-1.17-.92-2.2-2.04-3.26-3.1-47.3-47.28-94.61-94.56-141.9-141.85-1.06-1.06-1.99-2.24-3.79-4.26Z"/></g></svg>